# xmcd
#
# Track frame offsets: 
#        150
#        15912
#        31994
#        49876
#        76159
#        92121
#        115596
#        132080
#        157185
#        175093
#        192844
#        215386
#        232112
#        246560
#        260371
#        279946
#        298499
#
# Disc length: 4207 seconds
#
# Revision: 0
# Processed by: cddbd v1.5.2PL0 Copyright (c) Steve Scherf et al.
# Submitted via: ExactAudioCopy v0.99pb3
#
DISCID=ed106d11
DTITLE=Various Artist - 1000% Romantic Ballads vol.10
DYEAR=2002
DGENRE=Ballad
TTITLE0=Mariah Carey/Without You
TTITLE1=Chilly/Springtime
TTITLE2=Lauren Christy/The Color Of The Night
TTITLE3=Boyz 2 Men/End Of The Road
TTITLE4=Demis Roussos/Forever And Ever
TTITLE5=Michael Bolton/Can I Touch You There
TTITLE6=Modern Talking/Don't Let I Get You Down
TTITLE7=Duran Duran/Ordinary Word
TTITLE8=Giorgio Moroder/Lady, Lady, Lady
TTITLE9=Blue System/Taxi Girl
TTITLE10=Chris Rea/All Summer Long
TTITLE11=U2 feat. Daniel Landis/The Ground Beneath Her Feet
TTITLE12=Modjo/Lady (Hear Me Tonight)
TTITLE13=Tom Jones feat. Natalie Imbruglia/Never Tear Us Apart
TTITLE14=Bryan Ferry/Slave To Love
TTITLE15=Richard Ashcroft/A Song For Lovers
TTITLE16=Marc Anthony/You Sang To Me
EXTD=
EXTT0=
EXTT1=
EXTT2=
EXTT3=
EXTT4=
EXTT5=
EXTT6=
EXTT7=
EXTT8=
EXTT9=
EXTT10=
EXTT11=
EXTT12=
EXTT13=
EXTT14=
EXTT15=
EXTT16=
PLAYORDER=
